Patient4_TMGait_0pt4_01_left_18_EMG.mot
version=1
nRows=27
nColumns=33
inDegrees=no
endheader
time	1LAddLong	2LGlutMax	3LGlutMed	4LIliopsoas	5LSemiMemb	6LBicFemLong	7LRecFem	8LVastMed	9LVastLat	10LGasMed	11LTibAnt	12lTibPost	13LPeroneusLong	14LSol	15LExtDigLong	16LFlexDigLong	17RAddLong	18RGlutMax	19RGlutMed	20RIliopsoas	21RSemiMemb	22RBicFemLong	23RRecFem	24RVastMed	25RVastLat	26RGasMed	27RTibAnt	28RTibPost	29RPeroneusLong	30RSol	31RExtDigLong	32RFlexDigLong
23.643	-0.005035	-0.14267	0.62943	0.002136	0.055695	0.003357	-0.044098	0.002289	-0.089722	-0.045776	-0.02594	0.02655	-0.024414	0.094299	0.018921	-0.87189	-0.031586	-0.14008	0.21286	-0.030365	-0.1889	0.24445	-0.032501	0.18326	-0.02243	-0.005341	-0.16693	-0.005646	0.077057	0.11581	-0.007324	-0.007019
23.644	-0.002747	-0.15778	0.69397	0.007324	0.039978	0.007019	-0.049591	-0.006104	-0.081329	-0.018768	0.027161	0.0354	-0.007782	0.15213	0.009766	0.40894	-0.024261	-0.017548	-0.64407	0.018311	-0.26291	0.22705	-0.01358	-0.08728	-0.16846	-0.012207	-0.054321	-0.001068	-0.21988	0.06424	-0.007782	-0.005341
23.645	-0.001221	-0.11322	0.70023	-0.000305	0.02243	0.036469	-0.045624	0.001373	-0.092926	0.065308	0.062714	0.037384	0.020294	0.10407	0.026703	0.58121	0.003662	0.078278	-0.99655	0.018005	-0.072632	0.15213	-0.016632	-0.48187	-0.04364	-0.022583	0.044403	-0.010223	-1.7589	0.10956	-0.003815	-0.009308
23.646	-0.000305	-0.10727	0.70587	0.009155	0.006866	0.046997	-0.071716	0.004578	-0.087128	0.087585	0.046082	0.002441	0.027618	0.14877	0.017853	-0.20111	0.019379	0.078735	-0.73975	-0.002899	-0.0383	0.17151	-0.10727	-0.47302	0.01297	-0.031586	0.072632	-0.017853	-1.3211	-0.014648	-0.006561	-0.017395
23.647	0	-0.093384	0.74051	0.007629	0.019836	0.045013	-0.089264	0.002899	-0.069275	0.075073	0.033417	-0.019836	0.04715	0.27344	0.10941	-0.24735	-0.009155	0.06424	0.072479	-0.037994	0.23987	0.13916	-0.18951	-0.71365	0.007172	-0.034332	0.065765	-0.020447	0.5629	0.084839	-0.002289	-0.020447
23.648	0.001984	-0.026093	0.76324	0.005646	0.026398	0.036011	-0.074768	0.007935	-0.088043	0.058136	0.014191	0.023193	-0.002899	0.13168	0.031433	0.54398	0.004883	-0.14145	0.87631	-0.055695	0.20355	0.044098	-0.26276	-0.71701	0.010071	-0.032959	0.046997	-0.010681	0.57312	0.16312	-0.003052	-0.01297
23.649	-0.002899	-0.005493	0.7402	0.014343	0.007782	0.05249	-0.076904	0.00351	-0.076599	0.006409	0.023956	0.00824	-0.079803	0.024872	-0.033722	0.019836	0.027466	-0.34637	0.015869	-0.017548	0.005493	0.01709	-0.42526	-0.28824	0.11231	-0.035706	0.000458	-0.014343	0.39169	0.13672	0	-0.018616
23.65	-0.003662	0.017242	0.73166	-0.001831	0.034027	0.032043	-0.087433	-0.000916	-0.084991	-0.25177	0.021667	-0.003052	-0.19455	0.076447	-0.013428	-0.00946	0.10117	-0.3035	-0.1886	0.019379	-0.1358	0.084534	-0.37628	-0.27374	0.12848	-0.047913	-0.0177	-0.018158	-0.002441	0.13306	-0.003357	-0.003662
23.651	0.000916	0.084839	0.62439	0.014191	0.031738	0.022278	-0.087128	-0.004272	-0.076141	-0.37384	0.016327	0.002899	-0.23178	0.074158	0.0177	-0.021362	0.088348	-0.072937	-0.12466	-0.048065	-0.20645	0.1532	-0.2713	-0.37064	0.37293	-0.034485	-0.009613	-0.018311	-0.57281	0.12909	0	-0.007324
23.652	0.005798	0.11963	0.6842	-0.023804	-0.02533	-0.015411	-0.082245	-0.006409	-0.072632	-0.21637	0.023651	-0.054016	-0.12314	0.084229	-0.003052	-0.72922	0.023193	-0.028229	0.6517	-0.055542	0.016937	0.19134	-0.39215	-0.38422	0.13718	-0.018768	0.026093	-0.021515	-0.089417	0.14221	-0.00412	-0.002594
23.653	0.003357	0.14206	0.68649	-0.011749	-0.020447	-0.023041	-0.062408	0.002441	-0.079346	0.047607	0.020447	-0.53192	0.080719	0.10239	0.00473	0.52551	-0.03418	-0.039673	0.57144	-0.045166	0.2562	0.1387	-0.44281	-0.27176	0.00351	-0.015869	0.004578	-0.024872	0.65903	0.074158	-0.000153	-0.002289
23.654	0.003967	0.18951	0.63049	0.014496	-0.025635	-0.020142	-0.037994	-0.000458	-0.074921	0.21378	0.010681	0.61371	0.0737	0.5304	0.009155	-0.33218	-0.008698	-0.027161	0.14862	0.00473	0.16724	0.13855	-0.53131	-0.36499	-0.10223	-0.016022	-0.10147	-0.019226	0.56107	-0.11932	-0.003204	-0.00473
23.655	-0.001221	0.26077	0.6247	0.027771	-0.034943	-0.020447	-0.023499	0.000763	-0.061188	0.35523	0.010071	0.39414	-0.039368	0.88623	0.003052	-1.217	0.019226	-0.008392	-0.017242	0.059357	0.11139	0.086975	-0.42954	-0.21286	-0.23895	-0.013733	-0.032196	-0.02182	0.001068	-0.20035	-0.002441	-0.012207
23.656	-0.002136	0.29572	0.62424	0.012054	-0.028534	-0.036011	-0.024414	0.006104	-0.056763	0.35828	0.005646	-0.10788	-0.011444	0.73791	0.013275	0.061951	0.039215	0.084534	-0.42374	0.001526	0.078888	-0.036926	-0.4599	-0.077057	-0.25375	-0.011139	0.066376	-0.015106	-0.36636	-0.17349	-0.001831	-0.010681
23.657	0.001221	0.31769	0.5838	-0.002136	0.041656	-0.026245	-0.03479	-0.003052	-0.04364	0.11688	0.000458	-0.091553	0.20767	0.40741	0.065002	0.3093	0.064392	0.044861	-0.65323	-0.088959	0.068512	-0.14999	-0.29556	0.020752	-0.46829	-0.006256	0.16617	-0.011597	0.13077	-0.082397	-0.005341	-0.00061
23.658	0.000305	0.31754	0.54535	0.014496	0.073547	-0.020142	-0.013733	0.003052	-0.046692	0.037384	-0.005341	-0.12894	0.070496	-0.14999	0.02655	0.85571	0.04776	0.077209	-0.3894	-0.068512	0.074463	-0.20752	-0.4007	0.19012	-0.44998	-0.010681	0.35828	-0.000916	0.077209	0.011139	-0.000153	-0.00885
23.659	0.004578	0.31876	0.49789	0.02243	0.055542	-0.03067	-0.008392	0.004883	-0.05127	0.063629	0.008545	0.037537	0.029144	-0.87982	-0.046082	0.51483	-0.041962	0.24139	-0.42252	-0.062408	0.18356	-0.29663	-0.4863	0.21042	-0.13962	-0.007629	0.32288	-0.000916	-0.063324	0.001221	-0.002747	-0.003967
23.66	0.006714	0.36728	0.43671	0.005951	0.012207	0.014343	-0.035095	-0.001831	-0.054016	0.10025	0.012512	-0.04715	0.019379	-0.91934	-0.049133	0.47592	-0.036926	0.21896	-0.73669	-0.056915	0.066681	-0.35248	-0.37705	-0.001678	-0.074463	0.002441	0.013275	-0.005035	0.24445	-0.10513	-0.00061	-0.003204
23.661	0.004272	0.37293	0.37674	0.008087	0.006104	0.023041	-0.014496	0.003662	-0.045013	-0.049744	0.002899	-0.05722	0.024414	-0.53589	-0.006104	-0.1648	0.000305	0.34714	-0.58746	-0.054474	0.08728	-0.33737	-0.27741	0.40359	0.112	0.002899	-0.058899	0.004883	0.31952	-0.17075	0.002289	-0.004578
23.662	0.005035	0.38925	0.31693	0.00351	0.001831	0.010529	-0.015106	-0.000916	-0.027618	-0.085602	0.00412	0.006714	0.087738	0.050049	0.014496	-0.17975	0.015259	0.44479	-0.28351	-0.037842	0.23483	-0.26215	-0.18478	0.34088	0.7901	-0.001373	-0.063782	0.016022	-0.23178	-0.12955	-0.003052	-0.005341
23.663	0.001526	0.38208	0.27832	0.021057	0.016632	-0.01358	-0.011139	0.006104	-0.024109	0.014954	0.002441	-0.037079	0.12146	0.33997	0.002441	-0.000763	0.007935	0.43655	-0.034485	-0.092773	0.2919	-0.20645	-0.19791	0.091095	0.9462	-0.007172	0.2356	0.025177	-0.38727	-0.066986	-0.000153	-0.00946
23.664	0.006409	0.37827	0.23621	0.006409	0.022736	-0.000763	-0.010529	0.002441	-0.023346	-0.002594	0.013733	-0.016327	0.076447	0.37933	-0.005341	0.057983	-0.032349	0.46768	-0.51605	-0.083008	0.23331	-0.18417	-0.38605	0.1387	0.63248	-0.00885	0.088196	0.019989	-0.16052	-0.022583	-0.002747	-0.010223
23.665	0.004578	0.36301	0.19653	-0.003204	0.028687	-0.012207	0.000916	0.005188	-0.011444	-0.12238	-0.006104	-0.018158	0.071106	0.25833	0.006866	0.018311	-0.01709	0.44571	-0.73761	-0.050659	0.17868	-0.18051	-0.42282	0.070648	0.2121	-0.009613	0.070343	0.014496	-0.091248	-0.003815	-0.007935	-0.006714
23.666	0.005951	0.34775	0.14435	-0.001221	0.036774	0.011749	0.018768	-0.002289	-0.003052	-0.16693	0.005951	-0.025635	0.10071	-0.058594	-0.004425	-0.036469	0.075836	0.35248	-1.6274	0.047455	0.040741	-0.22232	-0.18585	0.14923	0.009003	-0.012817	0.14969	0.009308	-0.11398	-0.008087	0.001221	-0.014648
23.667	0.00412	0.34378	0.12604	0.025482	0.007477	0.007629	0.034943	0.006866	-0.009613	-0.19898	0.010223	-0.008087	0.075836	-0.19394	-0.027466	0.032501	0.11398	0.26062	-1.0005	0.082245	0.16602	-0.16571	0.20737	0.090332	-0.15732	-0.002899	-0.016785	0.007019	-0.289	0.002594	0.005493	-0.010681
23.668	-0.002136	0.31555	0.11108	0.001678	0.008087	-0.012817	0.034637	0.006561	-0.019836	-0.18936	0.006256	0.3743	0.12344	-0.11917	0.027008	0.02533	0.054474	0.21942	-0.67764	0.11795	0.16205	0.05188	0.48508	0.17914	-0.23712	-0.006256	-0.18967	0.011444	-0.1889	0.011444	0.002594	-0.000763
23.669	-0.003204	0.31296	0.094147	0.020447	0.010071	0.009308	0.045319	0.003662	-0.007172	-0.16602	0.008698	-0.41992	0.24597	-0.062866	0.065155	0.014954	-0.040894	0.25925	-1.2775	0.098877	-0.009766	0.13901	0.37125	0.12512	0.45502	-0.013123	-0.085754	0.008087	-0.23331	-0.075226	0.003357	-0.00946
